<?xml version="1.0" standalone="no"?>
<!DOCTYPE svg PUBLIC "-//W3C//DTD SVG 20010904//EN"
 "http://www.w3.org/TR/2001/REC-SVG-20010904/DTD/svg10.dtd">
<svg version="1.0" xmlns="http://www.w3.org/2000/svg"
 width="97.000000pt" height="92.000000pt" viewBox="0 0 97.000000 92.000000"
 preserveAspectRatio="xMidYMid meet">

<g transform="translate(0.000000,92.000000) scale(0.100000,-0.100000)"
fill="#000000" stroke="none">
<path d="M0 460 l0 -460 485 0 485 0 0 460 0 460 -485 0 -485 0 0 -460z m676
286 c82 -30 157 -57 166 -61 23 -9 53 -56 41 -64 -9 -5 -45 -100 -145 -379
-24 -68 -38 -94 -53 -98 -11 -2 -93 22 -183 56 -89 33 -171 60 -182 60 -10 0
-33 12 -52 26 -31 26 -31 25 4 -10 20 -20 40 -36 43 -36 4 0 14 -9 23 -20 10
-10 38 -27 64 -37 28 -11 44 -23 40 -29 -4 -5 -58 -19 -119 -30 l-113 -20 -18
20 c-26 28 -108 497 -93 525 6 11 27 22 48 25 262 46 312 59 318 77 8 24 33
49 50 49 7 0 80 -24 161 -54z"/>
<path d="M602 700 c5 -21 94 -64 116 -55 16 6 16 7 -1 16 -9 6 -15 14 -12 19
3 4 -10 8 -28 8 -41 0 -60 5 -70 17 -5 6 -7 4 -5 -5z"/>
<path d="M364 636 c-3 -14 -3 -34 1 -47 5 -15 4 -19 -5 -14 -9 5 -9 3 -2 -11
5 -11 12 -26 15 -34 3 -8 5 -1 5 15 0 17 3 44 6 60 5 28 5 28 -4 5 -8 -22 -9
-20 -5 13 4 42 -2 49 -11 13z"/>
<path d="M600 641 c0 -13 53 -41 77 -41 15 0 16 2 2 15 -8 9 -25 17 -37 20
-12 2 -27 7 -32 10 -6 3 -10 2 -10 -4z"/>
<path d="M510 605 c0 -8 12 -17 28 -20 86 -18 122 -31 171 -57 29 -16 56 -27
59 -24 3 3 0 6 -7 6 -8 0 -11 6 -7 16 3 8 2 12 -3 9 -5 -3 -12 4 -16 15 -4 12
-15 20 -28 20 -12 0 -52 9 -89 19 -36 11 -69 17 -72 13 -3 -3 -6 0 -6 6 0 7
-7 12 -15 12 -8 0 -15 -7 -15 -15z"/>
<path d="M332 504 c9 -9 21 -15 27 -13 6 2 -2 10 -17 17 -25 11 -25 11 -10 -4z"/>
<path d="M560 500 c0 -5 13 -10 29 -10 17 0 33 5 36 10 4 6 -8 10 -29 10 -20
0 -36 -4 -36 -10z"/>
<path d="M190 487 c0 -10 15 -27 34 -38 l34 -20 -30 -30 c-17 -16 -28 -32 -26
-35 9 -9 58 15 65 32 6 16 -16 66 -26 59 -10 -5 -26 7 -39 30 -10 18 -11 18
-12 2z m68 -89 c-3 -7 -13 -15 -24 -17 -16 -3 -17 -1 -5 13 16 19 34 21 29 4z"/>
<path d="M639 484 c-9 -11 -25 -15 -51 -12 -49 5 -48 -6 2 -26 48 -19 50 -19
50 -5 0 5 -4 8 -9 4 -5 -3 -12 -1 -16 5 -4 6 4 10 19 10 19 0 24 5 23 20 -2
24 -1 24 -18 4z"/>
<path d="M310 445 c7 -8 20 -15 28 -15 13 0 12 3 -4 15 -25 19 -40 19 -24 0z"/>
<path d="M517 443 c-14 -13 -6 -43 14 -54 17 -9 19 -13 8 -20 -11 -7 -11 -9
-1 -9 7 0 11 -4 7 -10 -3 -5 -12 -7 -19 -4 -8 3 -17 1 -21 -5 -3 -7 2 -11 14
-11 14 0 19 -5 15 -15 -4 -8 -1 -15 5 -15 6 0 11 5 11 10 0 6 5 10 11 10 5 0
7 -4 4 -10 -3 -5 -2 -10 4 -10 18 0 22 19 6 28 -22 12 -8 42 20 42 12 0 28 7
35 15 12 15 6 35 -11 35 -6 0 -7 -4 -4 -10 3 -5 -2 -10 -12 -10 -15 0 -16 -2
-3 -10 12 -8 11 -10 -6 -10 -17 0 -20 5 -16 30 3 19 0 30 -7 30 -7 0 -9 -4 -6
-10 3 -5 -3 -10 -14 -10 -14 0 -19 5 -15 15 6 15 -7 21 -19 8z m43 -43 c0 -5
-4 -10 -9 -10 -6 0 -13 5 -16 10 -3 6 1 10 9 10 9 0 16 -4 16 -10z"/>
<path d="M280 416 c0 -2 8 -10 18 -17 15 -13 16 -12 3 4 -13 16 -21 21 -21 13z"/>
<path d="M420 402 c0 -15 23 -30 37 -25 12 5 14 0 9 -25 -4 -16 -3 -33 2 -36
5 -3 12 7 15 23 4 17 14 31 24 34 17 4 17 5 1 6 -10 0 -18 6 -18 12 0 5 -4 8
-9 5 -5 -4 -21 -2 -35 4 -14 5 -26 6 -26 2z"/>
<path d="M605 334 c14 -14 14 -19 2 -38 -8 -11 -26 -28 -41 -36 -25 -14 -27
-14 -52 15 l-26 30 25 -35 c30 -43 56 -48 92 -18 34 29 41 74 15 88 -27 15
-34 12 -15 -6z"/>
<path d="M260 221 c-17 -34 -11 -39 25 -23 19 9 35 21 35 26 0 6 -5 5 -12 -2
-17 -17 -41 -15 -34 3 8 22 -1 19 -14 -4z"/>
</g>
</svg>
