<?xml version="1.0" standalone="no"?>
<!DOCTYPE svg PUBLIC "-//W3C//DTD SVG 20010904//EN"
 "http://www.w3.org/TR/2001/REC-SVG-20010904/DTD/svg10.dtd">
<svg version="1.0" xmlns="http://www.w3.org/2000/svg"
 width="38.000000pt" height="37.000000pt" viewBox="0 0 38.000000 37.000000"
 preserveAspectRatio="xMidYMid meet">

<g transform="translate(0.000000,37.000000) scale(0.100000,-0.100000)"
fill="#000000" stroke="none">
<path d="M0 185 l0 -185 190 0 190 0 0 185 0 185 -190 0 -190 0 0 -185z m211
95 c34 -33 31 -50 -7 -50 -30 0 -84 -50 -84 -78 0 -13 -9 -22 -24 -26 -13 -3
-32 -9 -41 -12 -15 -6 -16 -3 -9 17 4 13 7 45 5 72 -2 41 2 51 28 77 41 41 91
41 132 0z m45 -115 c7 -17 -21 -65 -37 -65 -6 0 -8 7 -5 15 3 8 9 22 13 31 5
13 2 15 -15 9 -21 -6 -29 4 -15 18 12 13 54 7 59 -8z m-18 -86 c-2 -6 -8 -10
-13 -10 -5 0 -11 4 -13 10 -2 6 4 11 13 11 9 0 15 -5 13 -11z"/>
</g>
</svg>
